HIERARCHY
ROOT hip
{
  OFFSET -1.62966 111.322 -0.413876
  CHANNELS 6 Xposition Yposition Zposition Zrotation Xrotation Yrotation
  JOINT abdomen
  {
    OFFSET 0 -1.186 -1.50178
    CHANNELS 6 Xposition Yposition Zposition Zrotation Xrotation Yrotation
    JOINT abdomen2
    {
      OFFSET 0 9.964 0.21338
      CHANNELS 6 Xposition Yposition Zposition Zrotation Xrotation Yrotation
      JOINT chest
      {
        OFFSET 0 13.134 -3.25729
        CHANNELS 6 Xposition Yposition Zposition Zrotation Xrotation Yrotation
        JOINT neck
        {
          OFFSET 0 21.686 -1.69049
          CHANNELS 6 Xposition Yposition Zposition Zrotation Xrotation Yrotation
          JOINT head
          {
            OFFSET 0 11.838 -0.12368
            CHANNELS 6 Xposition Yposition Zposition Zrotation Xrotation Yrotation
            End Site
            {
              OFFSET 0 6.717 2.38717
            }
          }
        }
        JOINT lCollar
        {
          OFFSET 1.70688 20.075 5.0056
          CHANNELS 6 Xposition Yposition Zposition Zrotation Xrotation Yrotation
          JOINT lShldr
          {
            OFFSET 13.6458 -0.047012 -4.84902
            CHANNELS 6 Xposition Yposition Zposition Zrotation Xrotation Yrotation
            JOINT lForeArm
            {
              OFFSET 28.3255 -0.975903 2.28883
              CHANNELS 6 Xposition Yposition Zposition Zrotation Xrotation Yrotation
              JOINT lHand
              {
                OFFSET 22.1583 -0.530035 10.8316
                CHANNELS 6 Xposition Yposition Zposition Zrotation Xrotation Yrotation
                JOINT lThumb1
                {
                  OFFSET 0.785995 0.111999 2.58168
                  CHANNELS 6 Xposition Yposition Zposition Zrotation Xrotation Yrotation
                  JOINT lThumb2
                  {
                    OFFSET 0.3601 -0.878005 4.2331
                    CHANNELS 6 Xposition Yposition Zposition Zrotation Xrotation Yrotation
                    End Site
                    {
                      OFFSET 1.81271 -1.21601 2.2227
                    }
                  }
                }
                JOINT lCarpal1
                {
                  OFFSET 0.9571 1.114 1.76948
                  CHANNELS 6 Xposition Yposition Zposition Zrotation Xrotation Yrotation
                  JOINT lIndex1
                  {
                    OFFSET 4.1246 0.487 4.1451
                    CHANNELS 6 Xposition Yposition Zposition Zrotation Xrotation Yrotation
                    JOINT lIndex2
                    {
                      OFFSET 3.40521 -1.45401 2.7682
                      CHANNELS 6 Xposition Yposition Zposition Zrotation Xrotation Yrotation
                      End Site
                      {
                        OFFSET 1.4531 -1.795 1.2713
                      }
                    }
                  }
                  JOINT lMid1
                  {
                    OFFSET 5.6954 0.209991 2.1184
                    CHANNELS 6 Xposition Yposition Zposition Zrotation Xrotation Yrotation
                    JOINT lMid2
                    {
                      OFFSET 3.9766 -1.53999 2.3863
                      CHANNELS 6 Xposition Yposition Zposition Zrotation Xrotation Yrotation
                      End Site
                      {
                        OFFSET 1.4042 -1.926 1.125
                      }
                    }
                  }
                }
                JOINT lCarpal2
                {
                  OFFSET 2.09559 0.65999 -0.38939
                  CHANNELS 6 Xposition Yposition Zposition Zrotation Xrotation Yrotation
                  JOINT lRing1
                  {
                    OFFSET 5.0395 -0.089997 2.49707
                    CHANNELS 6 Xposition Yposition Zposition Zrotation Xrotation Yrotation
                    JOINT lRing2
                    {
                      OFFSET 3.7921 -1.552 1.4806
                      CHANNELS 6 Xposition Yposition Zposition Zrotation Xrotation Yrotation
                      End Site
                      {
                        OFFSET 1.4655 -1.808 0.9609
                      }
                    }
                  }
                  JOINT lPinky1
                  {
                    OFFSET 4.9141 -1.269 0.35915
                    CHANNELS 6 Xposition Yposition Zposition Zrotation Xrotation Yrotation
                    JOINT lPinky2
                    {
                      OFFSET 3.1477 -1.685 0.84623
                      CHANNELS 6 Xposition Yposition Zposition Zrotation Xrotation Yrotation
                      End Site
                      {
                        OFFSET 0.805505 -1.58499 0.79549
                      }
                    }
                  }
                }
              }
            }
          }
        }
        JOINT rCollar
        {
          OFFSET -1.70688 20.075 5.0056
          CHANNELS 6 Xposition Yposition Zposition Zrotation Xrotation Yrotation
          JOINT rShldr
          {
            OFFSET -13.6458 -0.047012 -4.84902
            CHANNELS 6 Xposition Yposition Zposition Zrotation Xrotation Yrotation
            JOINT rForeArm
            {
              OFFSET -28.3255 -0.975903 2.28883
              CHANNELS 6 Xposition Yposition Zposition Zrotation Xrotation Yrotation
              JOINT rHand
              {
                OFFSET -22.1583 -0.530036 10.8316
                CHANNELS 6 Xposition Yposition Zposition Zrotation Xrotation Yrotation
                JOINT rThumb1
                {
                  OFFSET -0.785995 0.111999 2.58168
                  CHANNELS 6 Xposition Yposition Zposition Zrotation Xrotation Yrotation
                  JOINT rThumb2
                  {
                    OFFSET -0.3601 -0.878005 4.2331
                    CHANNELS 6 Xposition Yposition Zposition Zrotation Xrotation Yrotation
                    End Site
                    {
                      OFFSET -1.81271 -1.21601 2.2227
                    }
                  }
                }
                JOINT rCarpal1
                {
                  OFFSET -0.9571 1.114 1.76948
                  CHANNELS 6 Xposition Yposition Zposition Zrotation Xrotation Yrotation
                  JOINT rIndex1
                  {
                    OFFSET -4.1246 0.487 4.1451
                    CHANNELS 6 Xposition Yposition Zposition Zrotation Xrotation Yrotation
                    JOINT rIndex2
                    {
                      OFFSET -3.40521 -1.45401 2.7682
                      CHANNELS 6 Xposition Yposition Zposition Zrotation Xrotation Yrotation
                      End Site
                      {
                        OFFSET -1.4531 -1.795 1.2713
                      }
                    }
                  }
                  JOINT rMid1
                  {
                    OFFSET -5.6954 0.209991 2.1184
                    CHANNELS 6 Xposition Yposition Zposition Zrotation Xrotation Yrotation
                    JOINT rMid2
                    {
                      OFFSET -3.9766 -1.53999 2.3863
                      CHANNELS 6 Xposition Yposition Zposition Zrotation Xrotation Yrotation
                      End Site
                      {
                        OFFSET -1.4042 -1.926 1.125
                      }
                    }
                  }
                }
                JOINT rCarpal2
                {
                  OFFSET -2.09559 0.65999 -0.38939
                  CHANNELS 6 Xposition Yposition Zposition Zrotation Xrotation Yrotation
                  JOINT rRing1
                  {
                    OFFSET -5.0395 -0.089997 2.49707
                    CHANNELS 6 Xposition Yposition Zposition Zrotation Xrotation Yrotation
                    JOINT rRing2
                    {
                      OFFSET -3.7921 -1.552 1.4806
                      CHANNELS 6 Xposition Yposition Zposition Zrotation Xrotation Yrotation
                      End Site
                      {
                        OFFSET -1.4655 -1.808 0.9609
                      }
                    }
                  }
                  JOINT rPinky1
                  {
                    OFFSET -4.9141 -1.269 0.35915
                    CHANNELS 6 Xposition Yposition Zposition Zrotation Xrotation Yrotation
                    JOINT rPinky2
                    {
                      OFFSET -3.1477 -1.685 0.84623
                      CHANNELS 6 Xposition Yposition Zposition Zrotation Xrotation Yrotation
                      End Site
                      {
                        OFFSET -0.805505 -1.58499 0.79549
                      }
                    }
                  }
                }
              }
            }
          }
        }
      }
    }
  }
  JOINT lThigh
  {
    OFFSET 8.367 -8.2066 0.59823
    CHANNELS 6 Xposition Yposition Zposition Zrotation Xrotation Yrotation
    JOINT lShin
    {
      OFFSET 2.19232 -43.463 -0.493181
      CHANNELS 6 Xposition Yposition Zposition Zrotation Xrotation Yrotation
      JOINT lFoot
      {
        OFFSET 0.733257 -45.8593 -2.64513
        CHANNELS 6 Xposition Yposition Zposition Zrotation Xrotation Yrotation
        End Site
        {
          OFFSET 2.6618 -4.26993 12.3931
        }
      }
    }
  }
  JOINT rThigh
  {
    OFFSET -8.367 -8.2066 0.59823
    CHANNELS 6 Xposition Yposition Zposition Zrotation Xrotation Yrotation
    JOINT rShin
    {
      OFFSET -2.19233 -43.463 -0.493108
      CHANNELS 6 Xposition Yposition Zposition Zrotation Xrotation Yrotation
      JOINT rFoot
      {
        OFFSET -0.733256 -45.8593 -2.64514
        CHANNELS 6 Xposition Yposition Zposition Zrotation Xrotation Yrotation
        End Site
        {
          OFFSET -2.6618 -4.26993 12.3931
        }
      }
    }
  }
}
MOTION
Frames:	4
Frame Time:	0.0333333
-5.64967e-005 103.993 -1.42212 0 0 -0 0 -1.186 -1.50178 0 0 -0 0 9.964 0.21338 0 0 -0 0 13.134 -3.25729 0 0 -0 0 21.686 -1.69049 0 0 -0 0 11.838 -0.12368 0 0 -0 1.70688 20.075 5.0056 0 0 -0 13.6458 -0.047012 -4.84902 0.00127061 0.00076837 5.45741 28.3255 -0.975903 2.28883 -0.0012455 -0.000652875 21.1674 22.1583 -0.530035 10.8316 -8.30021e-005 4.16094e-005 0.000111497 0.785995 0.111999 2.58168 -1.44635e-027 0 -0 0.3601 -0.878005 4.2331 1.44635e-027 0 -3.18055e-015 0.9571 1.114 1.76948 -1.44635e-027 0 -0 4.1246 0.487 4.1451 1.44635e-027 0 -3.18055e-015 3.40521 -1.45401 2.7682 2.8927e-027 2.8927e-027 -0 5.6954 0.209991 2.1184 1.44635e-027 0 -3.18055e-015 3.9766 -1.53999 2.3863 2.8927e-027 2.8927e-027 -0 2.09559 0.65999 -0.38939 -1.44635e-027 0 -0 5.0395 -0.089997 2.49707 1.44635e-027 0 -3.18055e-015 3.7921 -1.552 1.4806 2.8927e-027 2.8927e-027 -0 4.9141 -1.269 0.35915 1.44635e-027 0 -3.18055e-015 3.1477 -1.685 0.84623 2.8927e-027 2.8927e-027 -0 -1.70688 20.075 5.0056 0 0 -0 -13.6458 -0.047012 -4.84902 -0.00127695 0.000812872 -6.04358 -28.3255 -0.975903 2.28883 0.00127231 -0.000687016 -20.3599 -22.1583 -0.530036 10.8316 7.3373e-005 4.12064e-005 -0.000103872 -0.785995 0.111999 2.58168 -4.33905e-027 -2.8927e-027 -0 -0.3601 -0.878005 4.2331 -1.15708e-026 -1.44635e-027 -0 -0.9571 1.114 1.76948 -4.33905e-027 -2.8927e-027 -0 -4.1246 0.487 4.1451 -1.15708e-026 -1.44635e-027 -0 -3.40521 -1.45401 2.7682 1.2294e-026 -1.44635e-027 -0 -5.6954 0.209991 2.1184 -1.15708e-026 -1.44635e-027 -0 -3.9766 -1.53999 2.3863 1.2294e-026 -1.44635e-027 -0 -2.09559 0.65999 -0.38939 -4.33905e-027 -2.8927e-027 -0 -5.0395 -0.089997 2.49707 -1.15708e-026 -1.44635e-027 -0 -3.7921 -1.552 1.4806 1.2294e-026 -1.44635e-027 -0 -4.9141 -1.269 0.35915 -1.15708e-026 -1.44635e-027 -0 -3.1477 -1.685 0.84623 1.2294e-026 -1.44635e-027 -0 8.367 -8.2066 0.59823 -1.3639 -2.01175 -0.0420488 2.19232 -43.463 -0.493181 0.00228451 0.000300322 0.0386569 0.733257 -45.8593 -2.64513 1.36234 2.01096 -0.0445039 -8.367 -8.2066 0.59823 1.36393 -2.00939 0.0419303 -2.19233 -43.463 -0.493108 -0.00224993 -0.0024426 -0.0385396 -0.733256 -45.8593 -2.64514 -1.36241 2.01134 0.0445153 
-5.64967e-005 103.993 -1.42212 0 0 -0 0 -1.186 -1.50178 0 0 -0 0 9.964 0.21338 0 0 -0 0 13.134 -3.25729 0 0 -0 0 21.686 -1.69049 0 0 -0 0 11.838 -0.12368 0 0 -0 1.70688 20.075 5.0056 0 0 -0 13.6458 -0.047012 -4.84902 0.00127061 0.00076837 5.45741 28.3255 -0.975903 2.28883 -0.0012455 -0.000652875 21.1674 22.1583 -0.530035 10.8316 -8.30021e-005 4.16094e-005 0.000111497 0.785995 0.111999 2.58168 -1.44635e-027 0 -0 0.3601 -0.878005 4.2331 1.44635e-027 0 -3.18055e-015 0.9571 1.114 1.76948 -1.44635e-027 0 -0 4.1246 0.487 4.1451 1.44635e-027 0 -3.18055e-015 3.40521 -1.45401 2.7682 2.8927e-027 2.8927e-027 -0 5.6954 0.209991 2.1184 1.44635e-027 0 -3.18055e-015 3.9766 -1.53999 2.3863 2.8927e-027 2.8927e-027 -0 2.09559 0.65999 -0.38939 -1.44635e-027 0 -0 5.0395 -0.089997 2.49707 1.44635e-027 0 -3.18055e-015 3.7921 -1.552 1.4806 2.8927e-027 2.8927e-027 -0 4.9141 -1.269 0.35915 1.44635e-027 0 -3.18055e-015 3.1477 -1.685 0.84623 2.8927e-027 2.8927e-027 -0 -1.70688 20.075 5.0056 0 0 -0 -13.6458 -0.047012 -4.84902 -0.00127695 0.000812872 -6.04358 -28.3255 -0.975903 2.28883 0.00127231 -0.000687016 -20.3599 -22.1583 -0.530036 10.8316 7.3373e-005 4.12064e-005 -0.000103872 -0.785995 0.111999 2.58168 -4.33905e-027 -2.8927e-027 -0 -0.3601 -0.878005 4.2331 -1.15708e-026 -1.44635e-027 -0 -0.9571 1.114 1.76948 -4.33905e-027 -2.8927e-027 -0 -4.1246 0.487 4.1451 -1.15708e-026 -1.44635e-027 -0 -3.40521 -1.45401 2.7682 1.2294e-026 -1.44635e-027 -0 -5.6954 0.209991 2.1184 -1.15708e-026 -1.44635e-027 -0 -3.9766 -1.53999 2.3863 1.2294e-026 -1.44635e-027 -0 -2.09559 0.65999 -0.38939 -4.33905e-027 -2.8927e-027 -0 -5.0395 -0.089997 2.49707 -1.15708e-026 -1.44635e-027 -0 -3.7921 -1.552 1.4806 1.2294e-026 -1.44635e-027 -0 -4.9141 -1.269 0.35915 -1.15708e-026 -1.44635e-027 -0 -3.1477 -1.685 0.84623 1.2294e-026 -1.44635e-027 -0 8.367 -8.2066 0.59823 -1.3639 -2.01175 -0.0420488 2.19232 -43.463 -0.493181 0.00228451 0.000300322 0.0386569 0.733257 -45.8593 -2.64513 1.36234 2.01096 -0.0445039 -8.367 -8.2066 0.59823 1.36393 -2.00939 0.0419303 -2.19233 -43.463 -0.493108 -0.00224993 -0.0024426 -0.0385396 -0.733256 -45.8593 -2.64514 -1.36241 2.01134 0.0445153 
-0.0859512 115.088 -1.73707 0.880037 -2.59041 -4.34425 4.44089e-016 -1.186 -1.50178 -0.561305 0.538007 0.814582 -2.22045e-016 9.964 0.21338 -1.13028 1.06795 1.6345 2.22045e-016 13.134 -3.25729 -1.13028 1.06795 1.6345 -8.88178e-016 21.686 -1.69049 6.84752 0.0769971 -0.813681 -1.77636e-015 11.838 -0.12368 -4.53914 0.536111 2.25766 1.70688 20.075 5.0056 -28.7104 3.00992 -5.13281 13.6458 -0.047012 -4.84902 -43.8199 30.0147 -9.81038 28.3255 -0.975903 2.28883 -8.04565 -14.1607 17.6265 22.1583 -0.530035 10.8316 -7.9396 4.40098 -4.7147 0.785995 0.111999 2.58168 -7.95139e-016 3.18055e-015 -0 0.3601 -0.878005 4.2331 0 3.18055e-015 -0 0.9571 1.114 1.76948 -7.95139e-016 3.18055e-015 -0 4.1246 0.487 4.1451 0 3.18055e-015 -0 3.40521 -1.45401 2.7682 -7.95139e-016 3.18055e-015 -1.59028e-015 5.6954 0.209991 2.1184 0 3.18055e-015 -0 3.9766 -1.53999 2.3863 -7.95139e-016 3.18055e-015 -1.59028e-015 2.09559 0.65999 -0.38939 -7.95139e-016 3.18055e-015 -0 5.0395 -0.089997 2.49707 0 3.18055e-015 -0 3.7921 -1.552 1.4806 -7.95139e-016 3.18055e-015 -1.59028e-015 4.9141 -1.269 0.35915 0 3.18055e-015 -0 3.1477 -1.685 0.84623 -7.95139e-016 3.18055e-015 -1.59028e-015 -1.70688 20.075 5.0056 24.0007 4.93463 12.7109 -13.6458 -0.047012 -4.84902 54.4939 19.1297 -1.86019 -28.3255 -0.975903 2.28883 5.00114 -4.25873 -8.17421 -22.1583 -0.530036 10.8316 2.22433 1.19283 3.60322 -0.785995 0.111999 2.58168 -7.95139e-016 -6.36111e-015 7.95139e-016 -0.3601 -0.878005 4.2331 -7.95139e-016 -3.18055e-015 7.95139e-016 -0.9571 1.114 1.76948 -7.95139e-016 -6.36111e-015 7.95139e-016 -4.1246 0.487 4.1451 -7.95139e-016 -3.18055e-015 7.95139e-016 -3.40521 -1.45401 2.7682 -7.95139e-016 -3.18055e-015 7.95139e-016 -5.6954 0.209991 2.1184 -7.95139e-016 -3.18055e-015 7.95139e-016 -3.9766 -1.53999 2.3863 -7.95139e-016 -3.18055e-015 7.95139e-016 -2.09559 0.65999 -0.38939 -7.95139e-016 -6.36111e-015 7.95139e-016 -5.0395 -0.089997 2.49707 -7.95139e-016 -3.18055e-015 7.95139e-016 -3.7921 -1.552 1.4806 -7.95139e-016 -3.18055e-015 7.95139e-016 -4.9141 -1.269 0.35915 -7.95139e-016 -3.18055e-015 7.95139e-016 -3.1477 -1.685 0.84623 -7.95139e-016 -3.18055e-015 7.95139e-016 8.367 -8.2066 0.59823 -1.38432 -1.25095 7.75203 2.19232 -43.463 -0.493181 -1.31107 9.78044 -0.0135387 0.733257 -45.8593 -2.64513 -0.0485728 -8.68465 0.00495601 -8.367 -8.2066 0.59823 -0.146296 -1.2854 -7.11099 -2.19233 -43.463 -0.493108 0.319483 7.64579 1.24319 -0.733256 -45.8593 -2.64514 -13.2211 -1.96069 -0.12714 
-0.0747751 115.007 -1.74009 0.905466 -2.4307 -4.05549 0 -1.186 -1.50178 -0.541956 0.50408 0.749538 0 9.964 0.21338 -1.09051 1.001 1.50389 0 13.134 -3.25729 -1.09052 1.001 1.50389 4.44089e-016 21.686 -1.69049 6.38361 0.22857 -0.694193 0 11.838 -0.12368 -3.93903 0.286596 2.10056 1.70688 20.075 5.0056 -28.959 3.01565 -5.08875 13.6458 -0.047012 -4.84902 -43.6631 30.2128 -9.7528 28.3255 -0.975903 2.28883 -8.34057 -14.9255 17.4212 22.1583 -0.530035 10.8316 -7.29905 4.08979 -5.22095 0.785995 0.111999 2.58168 0 0 -0 0.3601 -0.878005 4.2331 -7.95139e-016 -3.18055e-015 -0 0.9571 1.114 1.76948 0 0 -0 4.1246 0.487 4.1451 -7.95139e-016 -3.18055e-015 -0 3.40521 -1.45401 2.7682 7.95139e-016 0 -1.59028e-015 5.6954 0.209991 2.1184 -7.95139e-016 -3.18055e-015 -0 3.9766 -1.53999 2.3863 7.95139e-016 0 -1.59028e-015 2.09559 0.65999 -0.38939 0 0 -0 5.0395 -0.089997 2.49707 -7.95139e-016 -3.18055e-015 -0 3.7921 -1.552 1.4806 7.95139e-016 0 -1.59028e-015 4.9141 -1.269 0.35915 -7.95139e-016 -3.18055e-015 -0 3.1477 -1.685 0.84623 7.95139e-016 0 -1.59028e-015 -1.70688 20.075 5.0056 23.943 5.00379 12.9648 -13.6458 -0.047012 -4.84902 54.4626 18.9579 -1.92953 -28.3255 -0.975903 2.28883 4.33512 -2.35067 -8.45161 -22.1583 -0.530036 10.8316 1.86685 1.00569 3.80098 -0.785995 0.111999 2.58168 -1.19271e-015 0 -7.95139e-016 -0.3601 -0.878005 4.2331 1.19271e-015 0 -3.18055e-015 -0.9571 1.114 1.76948 -1.19271e-015 0 -7.95139e-016 -4.1246 0.487 4.1451 1.19271e-015 0 -3.18055e-015 -3.40521 -1.45401 2.7682 7.95139e-016 0 -2.38542e-015 -5.6954 0.209991 2.1184 1.19271e-015 0 -3.18055e-015 -3.9766 -1.53999 2.3863 7.95139e-016 0 -2.38542e-015 -2.09559 0.65999 -0.38939 -1.19271e-015 0 -7.95139e-016 -5.0395 -0.089997 2.49707 1.19271e-015 0 -3.18055e-015 -3.7921 -1.552 1.4806 7.95139e-016 0 -2.38542e-015 -4.9141 -1.269 0.35915 1.19271e-015 0 -3.18055e-015 -3.1477 -1.685 0.84623 7.95139e-016 0 -2.38542e-015 8.367 -8.2066 0.59823 -1.44863 -1.44749 7.64576 2.19232 -43.463 -0.493181 -1.34978 9.81113 -0.405468 0.733257 -45.8593 -2.64513 1.12826 -8.71845 0.0826964 -8.367 -8.2066 0.59823 -0.11775 -1.37137 -7.12361 -2.19233 -43.463 -0.493108 0.416051 7.43355 0.838415 -0.733256 -45.8593 -2.64514 -13.9576 -1.63186 -0.0967101 
